<?xml version="1.0" standalone="no"?>
<!DOCTYPE svg PUBLIC "-//W3C//DTD SVG 20010904//EN"
 "http://www.w3.org/TR/2001/REC-SVG-20010904/DTD/svg10.dtd">
<svg version="1.0" xmlns="http://www.w3.org/2000/svg"
 width="140" height="140" viewBox="0 0 2432 3088"
 preserveAspectRatio="xMidYMid meet">

<g transform="translate(0.000000,3088.000000) scale(0.100000,-0.100000)"
fill="#1f2937" stroke="none">
<path d="M9250 24739 c-735 -10 -879 -30 -1223 -165 -175 -69 -319 -145 -480
-252 -253 -168 -551 -561 -1172 -1547 -360 -572 -624 -975 -825 -1260 -235
-334 -333 -478 -675 -995 -568 -857 -725 -1099 -960 -1480 -152 -245 -545
-830 -1017 -1513 -466 -673 -578 -856 -705 -1157 -94 -221 -123 -308 -159
-470 -42 -194 -55 -342 -64 -755 -12 -528 -12 -7778 0 -8220 13 -481 31 -595
137 -860 102 -257 233 -503 350 -661 132 -178 437 -409 736 -558 110 -55 159
-73 292 -105 204 -51 361 -77 550 -92 203 -16 8593 -25 9215 -10 430 11 568
21 777 62 210 40 415 127 680 288 327 197 282 155 1928 1826 1198 1216 1347
1366 2636 2655 1213 1212 1341 1346 1444 1505 59 91 167 310 208 421 94 259
126 390 149 604 16 155 25 10247 8 10595 -25 550 -66 687 -325 1085 -142 218
-318 418 -490 556 -106 84 -338 236 -442 288 -261 130 -450 184 -718 206 -146
11 -9060 20 -9855 9z m-2320 -1189 c-6 -11 -13 -20 -16 -20 -2 0 0 9 6 20 6
11 13 20 16 20 2 0 0 -9 -6 -20z m-30 -47 c-13 -23 -65 -82 -54 -63 9 17 58
80 62 80 1 0 -2 -8 -8 -17z m-150 -223 c-6 -11 -13 -20 -16 -20 -2 0 0 9 6 20
6 11 13 20 16 20 2 0 0 -9 -6 -20z m-99 -146 c-39 -60 -75 -115 -81 -121 -6
-7 -20 -28 -31 -48 -12 -19 -23 -35 -25 -35 -7 0 15 39 56 100 21 30 61 92 90
138 29 45 55 81 57 78 2 -2 -28 -52 -66 -112z m-151 -233 c-5 -11 -15 -23 -21
-27 -6 -3 -3 5 6 20 20 30 30 35 15 7z m-70 -111 c-6 -11 -13 -20 -16 -20 -2
0 0 9 6 20 6 11 13 20 16 20 2 0 0 -9 -6 -20z m11407 -554 c2 -1 3 -762 3
-1691 1 -1614 0 -1690 -17 -1697 -10 -4 -335 -5 -722 -1 -690 6 -704 6 -695
-13 7 -14 19 -2983 19 -4570 0 -5 -4434 -8 -4437 -4 -1 3 -1 1018 2 2256 5
2115 6 2253 22 2271 10 10 19 30 20 44 3 20 -1 24 -22 21 -14 -2 -319 -6 -678
-9 -505 -4 -656 -2 -667 7 -13 11 -15 228 -15 1700 0 927 2 1689 5 1692 5 5
7177 -1 7182 -6z m-12527 -1135 c-5 -11 -15 -23 -22 -27 -7 -5 -8 -2 -3 7 21
37 44 55 25 20z m-86 -131 c-10 -16 -20 -28 -22 -26 -4 5 28 56 35 56 2 0 -4
-13 -13 -30z m-72 -109 c-15 -21 -29 -37 -31 -35 -4 4 47 74 54 74 3 0 -8 -18
-23 -39z m-78 -118 c-32 -47 -40 -55 -24 -23 12 24 40 60 46 60 2 0 -8 -17
-22 -37z m-54 -87 c0 -2 -8 -10 -17 -17 -16 -13 -17 -12 -4 4 13 16 21 21 21
13z m-37 -51 c-3 -9 -8 -14 -10 -11 -3 3 -2 9 2 15 9 16 15 13 8 -4z m-2155
-3250 c-6 -14 -13 -23 -15 -21 -5 5 15 46 22 46 3 0 -1 -11 -7 -25z m-44 -60
c-9 -14 -18 -25 -21 -25 -5 0 5 18 20 38 17 22 18 13 1 -13z"/>
<path d="M20480 24075 c18 -22 54 -62 79 -88 43 -46 95 -114 177 -235 33 -47
69 -86 49 -51 -59 101 -195 276 -271 349 -39 37 -53 48 -34 25z"/>
<path d="M20608 24020 c35 -41 104 -139 155 -217 92 -143 137 -193 76 -85 -60
105 -225 322 -276 363 -9 8 11 -20 45 -61z"/>
<path d="M20870 23626 c0 -14 24 -56 32 -56 5 0 7 -4 4 -9 -3 -4 1 -17 9 -27
15 -18 15 -18 9 1 -11 37 -34 84 -44 90 -6 3 -10 4 -10 1z"/>
<path d="M20926 23501 c-4 -6 2 -26 13 -44 24 -37 27 -25 7 23 -8 20 -16 28
-20 21z"/>
</g>
</svg> 